<svg width="235" height="205" viewBox="0 0 235 205" fill="none" xmlns="http://www.w3.org/2000/svg">
<path fill-rule="evenodd" clip-rule="evenodd" d="M1.22372 195.534C-0.295061 198.164 0.606253 201.528 3.23686 203.047C5.86747 204.566 9.23122 203.664 10.75 201.034L65.7131 105.835L73.4113 113.752L34.502 182.585C33.9585 183.546 34.2973 184.767 35.2589 185.31C36.2205 185.854 37.4406 185.515 37.9842 184.553L76.317 116.74L113.774 155.26C114.85 156.367 116.394 156.7 117.752 156.26C119.106 156.686 120.64 156.351 121.712 155.253L157.189 118.939L194.099 182.869C194.651 183.825 195.874 184.153 196.831 183.601C197.787 183.049 198.115 181.825 197.563 180.869L160.092 115.968L169.355 106.486L224.104 201.313C225.622 203.943 228.986 204.845 231.617 203.326C233.471 202.256 234.466 200.268 234.36 198.268C234.493 197.869 234.565 197.443 234.565 197V39C234.565 36.7909 232.774 35 230.565 35C230.311 35 230.062 35.0237 229.821 35.069C229.58 35.0237 229.332 35 229.077 35C227.711 35 226.505 35.6852 225.783 36.7307C225.007 36.87 224.264 37.239 223.664 37.8375L172.119 89.2723L122.75 3.76313C121.786 2.09316 120.078 1.12009 118.287 1.02067C115.927 0.364566 113.334 1.35312 112.053 3.57186L63.1421 88.2881L12.8249 37.8441C12.2259 37.2435 11.4839 36.8736 10.7089 36.7342C9.98758 35.6867 8.77999 35 7.41201 35C7.06963 35 6.73731 35.043 6.42014 35.1239C6.10296 35.043 5.77063 35 5.42826 35C3.21912 35 1.42826 36.7909 1.42826 39V195.18L1.22372 195.534ZM164.06 97.3139L117.346 16.4036L71.1872 96.3535L78.8842 104.07L113.502 42.8287C113.468 42.1047 113.829 41.3873 114.5 41C115.457 40.4477 116.68 40.7755 117.232 41.732L154.709 106.644L164.06 97.3139ZM151.779 109.569L115.697 47.0736L81.817 107.01L117.995 143.28L151.779 109.569ZM225.077 180.999V49.449L177.339 98.314L225.077 180.999ZM11.412 49.9924V177.887L57.7433 97.639L11.412 49.9924Z" fill="white"/>
</svg>
